# xmcd CD database file
#
# Track frame offsets:
#	150
#	27452
#	61804
#	81766
#	94818
#	134720
#	163822
#	197452
#	225504
#	239306
#	262558
#
# Disc length: 3813 seconds
#
# Revision: 0
# Processed by: cddbd v1.5.2PL0 Copyright (c) Steve Scherf et al.
# Submitted via: CDex 1.70beta2
#
DISCID=870ee30b
DTITLE=Dave Liebman/Steve Swallow/Adam Nussbaum - Amazing
DYEAR=2010
DGENRE=Jazz
TTITLE0=Remember
TTITLE1=Amazing
TTITLE2=In F
TTITLE3=Free Ballad #1
TTITLE4=My Maia
TTITLE5=Get Out Of Town
TTITLE6=Bend Over Backwards
TTITLE7=Swallowish
TTITLE8=Free Beguine #1
TTITLE9=Sure Would Baby
TTITLE10=Latin Like
EXTD=YEAR: 2010
EXTT0=
EXTT1=
EXTT2=
EXTT3=
EXTT4=
EXTT5=
EXTT6=
EXTT7=
EXTT8=
EXTT9=
EXTT10=
PLAYORDER=
